<svg xmlns="http://www.w3.org/2000/svg" style="display: none;"><symbol id="check-mark" viewBox="0 0 17.837 17.837"><title>check-mark</title><path style="fill:#030104;" d="M16.145,2.571c-0.272-0.273-0.718-0.273-0.99,0L6.92,10.804l-4.241-4.27 c-0.272-0.274-0.715-0.274-0.989,0L0.204,8.019c-0.272,0.271-0.272,0.717,0,0.99l6.217,6.258c0.272,0.271,0.715,0.271,0.99,0 L17.63,5.047c0.276-0.273,0.276-0.72,0-0.994L16.145,2.571z"/></symbol><symbol id="danger" viewBox="0 0 512 512"><title>danger</title><g> <g> <path d="M505.403,406.394L295.389,58.102c-8.274-13.721-23.367-22.245-39.39-22.245c-16.023,0-31.116,8.524-39.391,22.246 L6.595,406.394c-8.551,14.182-8.804,31.95-0.661,46.37c8.145,14.42,23.491,23.378,40.051,23.378h420.028 c16.56,0,31.907-8.958,40.052-23.379C514.208,438.342,513.955,420.574,505.403,406.394z M477.039,436.372 c-2.242,3.969-6.467,6.436-11.026,6.436H45.985c-4.559,0-8.784-2.466-11.025-6.435c-2.242-3.97-2.172-8.862,0.181-12.765 L245.156,75.316c2.278-3.777,6.433-6.124,10.844-6.124c4.41,0,8.565,2.347,10.843,6.124l210.013,348.292 C479.211,427.512,479.281,432.403,477.039,436.372z"/> </g> </g><g> <g> <path d="M256.154,173.005c-12.68,0-22.576,6.804-22.576,18.866c0,36.802,4.329,89.686,4.329,126.489 c0.001,9.587,8.352,13.607,18.248,13.607c7.422,0,17.937-4.02,17.937-13.607c0-36.802,4.329-89.686,4.329-126.489 C278.421,179.81,268.216,173.005,256.154,173.005z"/> </g> </g><g> <g> <path d="M256.465,353.306c-13.607,0-23.814,10.824-23.814,23.814c0,12.68,10.206,23.814,23.814,23.814 c12.68,0,23.505-11.134,23.505-23.814C279.97,364.13,269.144,353.306,256.465,353.306z"/> </g> </g></symbol><symbol id="deadline" viewBox="0 0 503 503.80517"><title>deadline</title><path d="m430.289062 73.921875c-22.964843-22.949219-50.136718-41.253906-80.03125-53.914063-86.082031-36.65625-185.425781-22.230468-257.519531 37.402344v-23.628906c0-4.632812-3.757812-8.390625-8.394531-8.390625s-8.394531 3.757813-8.394531 8.390625v41.96875c0 4.636719 3.757812 8.394531 8.394531 8.394531h28.46875c-5.144531 4.28125-10.128906 8.777344-14.914062 13.554688-13.234376 13.324219-24.699219 28.296875-34.109376 44.550781-.203124.207031-.394531.421875-.570312.648438-.117188.207031-.117188.445312-.21875.652343-33.96875 59.070313-38.363281 130.625-11.871094 193.402344 3.484375 8.066406 7.445313 15.914063 11.871094 23.503906.101562.207031.101562.441407.21875.652344.25.375.53125.730469.835938 1.058594 18.78125 32.542969 45.832031 59.539062 78.414062 78.25.242188.167969.386719.421875.644531.574219.300781.140624.605469.265624.914063.375 59.023437 33.839843 130.457031 38.1875 193.144531 11.75 7.980469-3.449219 15.746094-7.371094 23.257813-11.75.304687-.105469.605468-.222657.898437-.359376.222656-.175781.4375-.367187.636719-.570312 32.582031-18.710938 59.636718-45.703125 78.421875-78.246094.304687-.332031.582031-.6875.835937-1.0625.117188-.210937.117188-.445312.21875-.65625 39.140625-67.011718 39.140625-149.910156 0-216.921875-.101562-.207031-.101562-.445312-.21875-.652343-.175781-.222657-.363281-.4375-.5625-.640626-18.800781-32.722656-45.945312-59.867187-78.671875-78.671874-.242187-.164063-.382812-.417969-.644531-.570313-.261719-.148437-.445312-.117187-.65625-.214844-59.070312-33.976562-130.632812-38.367187-193.417969-11.871093-8.0625 3.484374-15.910156 7.445312-23.5 11.871093-.210937.097657-.445312.097657-.65625.214844-.222656.179687-.4375.367187-.636719.570313-3.449218 2.007812-6.917968 4.003906-10.25 6.203124-1.570312-1.566406-3.699218-2.441406-5.914062-2.433593h-19.382812c67.238281-52.925781 157.925781-65.140625 236.769531-31.894531 56.371093 23.832031 101.234375 68.691406 125.0625 125.0625 24.636719 58.503906 24.636719 124.472656 0 182.976562-23.828125 56.371094-68.691407 101.234375-125.0625 125.0625-58.503907 24.636719-124.46875 24.636719-182.976563 0-56.367187-23.828125-101.230468-68.691406-125.0625-125.0625-24.636718-58.503906-24.636718-124.472656 0-182.976562 1.8125-4.269532-.179687-9.199219-4.445312-11.011719-4.269532-1.8125-9.203125.179687-11.015625 4.449219-26.394531 62.695312-26.394531 133.382812 0 196.078124 25.539062 60.375 73.589843 108.425782 133.960937 133.96875 62.695313 26.398438 133.386719 26.398438 196.078125 0 60.375-25.539062 108.425781-73.589843 133.96875-133.960937 26.398438-62.695313 26.398438-133.382813 0-196.078125-12.660156-29.902344-30.96875-57.082031-53.917969-80.046875zm-256.480468-7.554687c22.203125-9.382813 45.921875-14.667969 70.011718-15.597657v50.160157c0 4.636718 3.757813 8.394531 8.390626 8.394531 4.636718 0 8.394531-3.757813 8.394531-8.394531v-50.160157c24.085937.941407 47.800781 6.230469 70 15.613281 5.113281 2.15625 10.074219 4.625 14.941406 7.175782l-16.667969 28.882812c-1.523437 2.597656-1.539062 5.8125-.039062 8.425782 1.5 2.609374 4.285156 4.21875 7.296875 4.210937 3.011719-.003906 5.789062-1.625 7.277343-4.242187l16.636719-28.808594c25.144531 15.730468 46.382813 36.96875 62.113281 62.113281l-28.773437 16.667969c-2.617187 1.488281-4.238281 4.265625-4.246094 7.277344-.007812 3.011718 1.601563 5.796874 4.214844 7.296874 2.609375 1.5 5.824219 1.488282 8.425781-.035156l28.871094-16.671875c2.519531 4.886719 5.035156 9.832031 7.175781 14.933594 9.390625 22.203125 14.683594 45.921875 15.621094 70.007813h-50.160156c-4.632813 0-8.390625 3.757812-8.390625 8.394531s3.757812 8.394531 8.390625 8.394531h50.160156c-.9375 24.082031-6.226563 47.800781-15.613281 70-2.15625 5.113281-4.621094 10.074219-7.175782 14.941406l-28.878906-16.667968c-2.601562-1.523438-5.816406-1.539063-8.425781-.039063-2.613281 1.5-4.222656 4.285156-4.214844 7.296875.007813 3.011719 1.628907 5.789062 4.246094 7.277344l28.804687 16.636718c-15.730468 25.140626-36.96875 46.382813-62.109374 62.109376l-16.671876-28.769532c-1.488281-2.621094-4.265624-4.238281-7.277343-4.246094-3.011719-.007812-5.796875 1.601563-7.296875 4.210938-1.5 2.613281-1.484375 5.828125.039062 8.425781l16.667969 28.875c-4.882813 2.519531-9.820313 5.035157-14.929687 7.175781-22.203126 9.390626-45.921876 14.683594-70.011719 15.621094v-50.160156c0-4.636719-3.757813-8.394531-8.394531-8.394531-4.632813 0-8.390626 3.757812-8.390626 8.394531v50.160156c-24.085937-.9375-47.800781-6.226562-70.003906-15.613281-5.109375-2.15625-10.070312-4.625-14.9375-7.183594l16.667969-28.875c2.28125-4.007812.894531-9.109375-3.101563-11.417969-3.992187-2.304687-9.101562-.953124-11.4375 3.027344l-16.632812 28.804688c-25.144531-15.730469-46.382812-36.96875-62.113281-62.113282l28.804687-16.632812c2.621094-1.488281 4.238282-4.265625 4.246094-7.277344.007812-3.015625-1.601562-5.796875-4.210938-7.296875-2.613281-1.5-5.828124-1.488281-8.425781.035157l-28.90625 16.636718c-2.519531-4.886718-5.039062-9.828125-7.179687-14.933594-9.390625-22.199218-14.679688-45.921874-15.617188-70.007812h50.15625c4.636719 0 8.394532-3.757812 8.394532-8.394531s-3.757813-8.394531-8.394532-8.394531h-50.15625c.9375-24.082032 6.226563-47.800782 15.609375-70 2.15625-5.109376 4.625-10.070313 7.175781-14.941407l28.882813 16.671875c2.597656 1.523438 5.8125 1.535156 8.425781.035156 2.613282-1.5 4.21875-4.285156 4.214844-7.296874-.007812-3.011719-1.628906-5.789063-4.246094-7.277344l-28.808594-16.636719c15.730469-25.140625 36.96875-46.378906 62.113282-62.109375l16.636718 28.804688c1.488282 2.621093 4.265626 4.238281 7.277344 4.246093 3.011719.007813 5.796875-1.601562 7.296875-4.214843 1.5-2.609376 1.484375-5.824219-.039062-8.421876l-16.632813-28.910156c4.882813-2.558594 9.820313-5.019531 14.929688-7.175781zm0 0"/><path d="m144.542969 245.070312c-13.109375 13.109376-13.109375 34.363282 0 47.472657l58.753906 58.753906c6.277344 6.320313 14.828125 9.859375 23.734375 9.832031h1.605469c9.46875-.445312 18.308593-4.871094 24.339843-12.1875l117.507813-142.691406c7.839844-9.234375 10.101563-21.976562 5.910156-33.34375-4.1875-11.367188-14.175781-19.59375-26.136719-21.53125-11.957031-1.933594-24.03125 2.722656-31.59375 12.1875l-94.007812 114.152344-32.609375-32.601563c-13.269531-12.726562-34.210937-12.746093-47.503906-.042969zm74.75 51.007813c1.648437 1.710937 3.964843 2.609375 6.335937 2.449219 2.367188-.113282 4.574219-1.21875 6.078125-3.046875l99.882813-121.285157c2.828125-3.449218 6.921875-5.625 11.363281-6.035156 9.222656-.875 17.414063 5.886719 18.296875 15.109375.441406 4.429688-.910156 8.851563-3.75 12.28125l-117.507812 142.6875c-3.035157 3.679688-7.488282 5.894531-12.253907 6.09375l-.707031.007813c-4.453125.011718-8.726562-1.757813-11.867188-4.917969l-58.753906-58.753906c-4.363281-4.214844-6.113281-10.457031-4.578125-16.324219 1.535157-5.871094 6.121094-10.453125 11.988281-11.992188 5.871094-1.535156 12.109376.214844 16.324219 4.578126zm0 0"/></symbol><symbol id="money-bag" viewBox="0 0 481 481"><title>money-bag</title><path d="M256.7,301.9h-27.5c-10,0-18.1-8.1-18.1-18.1s8.1-18.1,18.1-18.1h48.4c6.6,0,12-5.4,12-12c0-6.6-5.4-12-12-12h-22.7V225 c0-6.6-5.4-12-12-12s-12,5.4-12,12v16.7h-1.7c-23.2,0-42.1,18.9-42.1,42.1s18.9,42.1,42.1,42.1h27.5c10,0,18.1,8.1,18.1,18.1 s-8.1,18.1-18.1,18.1h-49.3c-6.6,0-12,5.4-12,12c0,6.6,5.4,12,12,12H231v17.1c0,6.6,5.4,12,12,12c6.6,0,12-5.4,12-12v-17.1h2 c0.1,0,0.2,0,0.3,0c23-0.3,41.5-19.1,41.5-42.1C298.8,320.8,279.9,301.9,256.7,301.9z"/><path d="M423.3,274.7c-12.6-29-30-57.1-52-83.4c-26.6-32-53.1-53.4-66.6-63.3l51-94.6c2.5-4.7,1.7-10.5-2.2-14.2 C340.3,6.3,326.3,0,310.7,0c-14.3,0-27.4,5.4-38.8,10.2c-9,3.7-17.5,7.3-24.4,7.3c-2.1,0-3.9-0.3-5.7-1C218,7.8,199.7,2.4,182,2.4 c-22.4,0-41.5,9-60.2,28.2c-3.9,4-4.5,10.3-1.4,15l55,83.1c-13.6,10.1-39.6,31.3-65.7,62.6c-21.9,26.3-39.4,54.4-52,83.4 c-15.8,36.5-23.8,74.6-23.8,113.2c0,51.3,41.8,93.1,93.1,93.1h227c51.3,0,93.1-41.8,93.1-93.1 C447.1,349.3,439.1,311.2,423.3,274.7z M146,40.6c11.6-10,22.7-14.4,36-14.4c14.2,0,30.2,4.8,51.5,12.7c4.4,1.6,9.1,2.4,13.9,2.4 c11.7,0,22.9-4.6,33.6-9.1c10.3-4.3,20.1-8.4,29.6-8.4c4.6,0,11.1,0.8,19.3,6.6l-48,89.2h-83.6L146,40.6z M354,457H127 c-38.1,0-69.1-31-69.1-69.1c0-64.1,23.5-124.9,69.7-180.7c29.2-35.3,58.9-57.2,67.9-63.6h89.8c9.1,6.3,38.7,28.3,67.9,63.6 c46.3,55.8,69.7,116.5,69.7,180.7C423.1,426,392.1,457,354,457z"/></symbol></svg>